<svg width="44" height="44" viewBox="0 0 44 44" fill="none" xmlns="http://www.w3.org/2000/svg">
<path d="M22.0026 42.8337V24.0837M28.6068 1.60455C29.1256 1.31444 29.7102 1.16211 30.3047 1.16211C30.8992 1.16211 31.4837 1.31444 32.0026 1.60455L40.7526 6.52122C41.3723 6.87164 41.8878 7.38031 42.2465 7.99524C42.6053 8.61017 42.7943 9.30931 42.7943 10.0212C42.7943 10.7331 42.6053 11.4323 42.2465 12.0472C41.8878 12.6621 41.3723 13.1708 40.7526 13.5212L15.3776 27.8129C14.8569 28.1087 14.2682 28.2643 13.6693 28.2643C13.0703 28.2643 12.4817 28.1087 11.9609 27.8129L3.2526 22.8962C2.63291 22.5458 2.11737 22.0371 1.75866 21.4222C1.39995 20.8073 1.21094 20.1081 1.21094 19.3962C1.21094 18.6843 1.39995 17.9852 1.75866 17.3702C2.11737 16.7553 2.63291 16.2466 3.2526 15.8962L28.6068 1.60455Z" stroke="#D04E47" stroke-width="2" stroke-linecap="round" stroke-linejoin="round"/>
<path d="M38.6693 24.084V32.1465C38.6701 32.9328 38.4548 33.7043 38.047 34.3766C37.6392 35.049 37.0545 35.5963 36.3568 35.959L23.8568 42.3757C23.284 42.6733 22.6481 42.8287 22.0026 42.8287C21.3571 42.8287 20.7212 42.6733 20.1484 42.3757L7.64844 35.959C6.9507 35.5963 6.366 35.049 5.95819 34.3766C5.55038 33.7043 5.33513 32.9328 5.33594 32.1465V24.084" stroke="#D04E47" stroke-width="2" stroke-linecap="round" stroke-linejoin="round"/>
<path d="M40.7526 22.8961C41.3723 22.5457 41.8878 22.037 42.2465 21.4221C42.6053 20.8071 42.7943 20.108 42.7943 19.3961C42.7943 18.6842 42.6053 17.985 42.2465 17.3701C41.8878 16.7552 41.3723 16.2465 40.7526 15.8961L15.3984 1.58359C14.8815 1.28757 14.2962 1.13184 13.7005 1.13184C13.1048 1.13184 12.5195 1.28757 12.0026 1.58359L3.2526 6.52109C2.63291 6.87151 2.11737 7.38018 1.75866 7.99511C1.39995 8.61004 1.21094 9.30919 1.21094 10.0211C1.21094 10.733 1.39995 11.4321 1.75866 12.0471C2.11737 12.662 2.63291 13.1707 3.2526 13.5211L28.6276 27.8128C29.1445 28.1088 29.7298 28.2645 30.3255 28.2645C30.9212 28.2645 31.5065 28.1088 32.0234 27.8128L40.7526 22.8961Z" stroke="#D04E47" stroke-width="2" stroke-linecap="round" stroke-linejoin="round"/>
</svg>
