<svg width="29" height="51" viewBox="0 0 29 51" fill="none" xmlns="http://www.w3.org/2000/svg">
<path fill-rule="evenodd" clip-rule="evenodd" d="M20.2207 5.80176C20.2207 7.31846 19.6182 8.77305 18.5457 9.84552C17.4732 10.918 16.0186 11.5205 14.5019 11.5205C12.9852 11.5205 11.5306 10.918 10.4582 9.84552C9.3857 8.77305 8.78319 7.31846 8.78319 5.80176C8.78319 4.28505 9.3857 2.83046 10.4582 1.75799C11.5306 0.685517 12.9852 0.0830078 14.5019 0.0830078C16.0186 0.0830078 17.4732 0.685517 18.5457 1.75799C19.6182 2.83046 20.2207 4.28505 20.2207 5.80176ZM17.679 5.80176C17.679 6.64437 17.3443 7.45248 16.7485 8.0483C16.1527 8.64411 15.3446 8.97884 14.5019 8.97884C13.6593 8.97884 12.8512 8.64411 12.2554 8.0483C11.6596 7.45248 11.3249 6.64437 11.3249 5.80176C11.3249 4.95914 11.6596 4.15104 12.2554 3.55522C12.8512 2.9594 13.6593 2.62467 14.5019 2.62467C15.3446 2.62467 16.1527 2.9594 16.7485 3.55522C17.3443 4.15104 17.679 4.95914 17.679 5.80176ZM9.38937 14.0622C7.91521 14.0622 6.44994 14.3951 5.12954 15.1958C3.81169 15.9926 2.86365 17.1147 2.20281 18.3449C0.951041 20.6705 0.601563 23.6138 0.601563 26.5494V26.6612C0.601563 26.6993 0.603257 26.7366 0.606646 26.7731L0.616813 26.8849C0.624438 26.9802 0.630792 27.3004 0.623167 28.0541L0.616813 28.5827V28.5853C0.610458 29.1597 0.601563 29.8434 0.601563 30.583C0.60148 31.1859 0.744399 31.7803 1.01859 32.3173C1.29277 32.8543 1.69041 33.3186 2.17885 33.6721C2.66728 34.0255 3.2326 34.2582 3.82837 34.3508C4.42415 34.4434 5.0334 34.3934 5.6061 34.2049V47.1038C5.6048 48.0859 5.98251 49.0306 6.66053 49.741C7.33854 50.4515 8.26455 50.8729 9.2456 50.9175C10.2266 50.962 11.1871 50.6263 11.9267 49.9802C12.6663 49.3342 13.1281 48.4276 13.2159 47.4495L14.2859 35.6663H14.7154L15.7867 47.4495C15.8708 48.4306 16.3312 49.3411 17.0715 49.9903C17.8119 50.6396 18.7746 50.9772 19.7583 50.9325C20.7419 50.8878 21.6702 50.4643 22.3486 49.7506C23.027 49.037 23.403 48.0885 23.3978 47.1038V34.1795C23.973 34.3828 24.5886 34.4452 25.1929 34.3613C25.7972 34.2774 26.3725 34.0497 26.8706 33.6973C27.3686 33.345 27.7748 32.8782 28.0551 32.3363C28.3353 31.7944 28.4814 31.1931 28.4811 30.583C28.4811 29.8459 28.4722 29.1622 28.4659 28.5878V28.5827L28.4595 28.0541C28.4519 27.3004 28.457 26.9802 28.4659 26.8849L28.476 26.7731L28.4811 26.6612V26.5494C28.4811 23.6138 28.1304 20.6718 26.8799 18.3449C26.219 17.116 25.271 15.9926 23.9531 15.1958C22.6315 14.3951 21.1675 14.0622 19.692 14.0622H9.38937ZM4.41406 31.8538C4.67359 31.854 4.92694 31.7746 5.14004 31.6265C5.35315 31.4784 5.51579 31.2686 5.6061 31.0253V22.3226H8.14777V47.1038C8.14756 47.4311 8.27362 47.7459 8.49969 47.9825C8.72576 48.2192 9.03442 48.3595 9.36136 48.3742C9.68831 48.389 10.0083 48.277 10.2548 48.0616C10.5012 47.8463 10.6551 47.5442 10.6844 47.2182L11.8611 34.2811C11.8897 33.9654 12.0352 33.6717 12.2692 33.4577C12.5031 33.2438 12.8086 33.125 13.1256 33.1247H15.8783C16.1955 33.1247 16.5013 33.2433 16.7355 33.4573C16.9697 33.6713 17.1154 33.9652 17.144 34.2811L18.3195 47.2182C18.3488 47.5442 18.5026 47.8463 18.7491 48.0616C18.9955 48.277 19.3156 48.389 19.6425 48.3742C19.9695 48.3595 20.2781 48.2192 20.5042 47.9825C20.7303 47.7459 20.8563 47.4311 20.8561 47.1038V22.3226H23.3978V30.6122C23.4016 30.9493 23.5393 31.271 23.7803 31.5066C24.0214 31.7422 24.3462 31.8723 24.6832 31.8685C25.0203 31.8646 25.342 31.727 25.5776 31.4859C25.8131 31.2448 25.9433 30.9201 25.9394 30.583C25.9394 29.8599 25.9305 29.1902 25.9242 28.6132V28.598L25.9178 28.0807C25.9045 27.6075 25.91 27.134 25.9344 26.6612L25.9394 26.6053V26.5494C25.9394 23.7383 25.59 21.3123 24.6406 19.5484C24.1552 18.6448 23.4982 17.8912 22.6365 17.3702C21.7749 16.8478 20.7811 16.6038 19.692 16.6038H9.38937C8.30154 16.6038 7.30775 16.8478 6.44485 17.3702C5.58323 17.8912 4.92748 18.6448 4.44075 19.5484C3.49271 21.3123 3.14323 23.7383 3.14323 26.5507V26.6053L3.14831 26.6612C3.16992 26.909 3.17246 27.3729 3.16483 28.0807L3.15848 28.6132C3.15213 29.1889 3.14323 29.8599 3.14323 30.583C3.14323 30.9201 3.27712 31.2433 3.51545 31.4816C3.75378 31.72 4.07702 31.8538 4.41406 31.8538Z" fill="#D04E47"/>
</svg>
