<svg width="67" height="55" viewBox="0 0 67 55" fill="none" xmlns="http://www.w3.org/2000/svg">
<path d="M24.375 28.75H5.625C5.12772 28.75 4.65081 28.9475 4.29917 29.2992C3.94754 29.6508 3.75 30.1277 3.75 30.625V49.375C3.75 49.8723 3.94754 50.3492 4.29917 50.7008C4.65081 51.0525 5.12772 51.25 5.625 51.25H24.375C24.8723 51.25 25.3492 51.0525 25.7008 50.7008C26.0525 50.3492 26.25 49.8723 26.25 49.375V30.625C26.25 30.1277 26.0525 29.6508 25.7008 29.2992C25.3492 28.9475 24.8723 28.75 24.375 28.75ZM24.375 49.375H5.625V30.625H24.375V49.375ZM15 32.5C13.5166 32.5 12.0666 32.9399 10.8332 33.764C9.59985 34.5881 8.63856 35.7594 8.0709 37.1299C7.50325 38.5003 7.35472 40.0083 7.64411 41.4632C7.9335 42.918 8.6478 44.2544 9.6967 45.3033C10.7456 46.3522 12.082 47.0665 13.5368 47.3559C14.9917 47.6453 16.4997 47.4968 17.8701 46.9291C19.2406 46.3614 20.4119 45.4001 21.236 44.1668C22.0601 42.9334 22.5 41.4834 22.5 40C22.4978 38.0115 21.707 36.1052 20.3009 34.6991C18.8949 33.293 16.9885 32.5022 15 32.5ZM15 45.625C13.8875 45.625 12.7999 45.2951 11.8749 44.677C10.9499 44.0589 10.2289 43.1804 9.80318 42.1526C9.37744 41.1248 9.26604 39.9938 9.48308 38.9026C9.70013 37.8115 10.2359 36.8092 11.0225 36.0225C11.8092 35.2359 12.8115 34.7001 13.9026 34.4831C14.9938 34.266 16.1248 34.3774 17.1526 34.8032C18.1804 35.2289 19.0589 35.9499 19.677 36.8749C20.2951 37.7999 20.625 38.8875 20.625 40C20.6234 41.4914 20.0303 42.9212 18.9758 43.9758C17.9212 45.0303 16.4914 45.6234 15 45.625ZM23.4375 32.9688C23.4375 33.2469 23.355 33.5188 23.2005 33.75C23.046 33.9813 22.8264 34.1615 22.5694 34.268C22.3124 34.3744 22.0297 34.4022 21.7569 34.348C21.4841 34.2937 21.2335 34.1598 21.0369 33.9631C20.8402 33.7665 20.7063 33.5159 20.652 33.2431C20.5978 32.9703 20.6256 32.6876 20.732 32.4306C20.8385 32.1736 21.0187 31.954 21.25 31.7995C21.4812 31.645 21.7531 31.5625 22.0312 31.5625C22.4042 31.5625 22.7619 31.7107 23.0256 31.9744C23.2893 32.2381 23.4375 32.5958 23.4375 32.9688ZM14.7258 38.7883L12.8508 40.6633C12.6749 40.8392 12.4363 40.938 12.1875 40.938C11.9387 40.938 11.7001 40.8392 11.5242 40.6633C11.3483 40.4874 11.2495 40.2488 11.2495 40C11.2495 39.7512 11.3483 39.5126 11.5242 39.3367L13.3992 37.4617C13.5751 37.2858 13.8137 37.187 14.0625 37.187C14.3113 37.187 14.5499 37.2858 14.7258 37.4617C14.9017 37.6376 15.0005 37.8762 15.0005 38.125C15.0005 38.3738 14.9017 38.6124 14.7258 38.7883ZM18.4758 38.3992C18.5629 38.4863 18.6321 38.5897 18.6793 38.7035C18.7265 38.8173 18.7507 38.9393 18.7507 39.0625C18.7507 39.1857 18.7265 39.3077 18.6793 39.4215C18.6321 39.5353 18.5629 39.6387 18.4758 39.7258L14.7258 43.4758C14.6387 43.5629 14.5353 43.632 14.4215 43.6791C14.3077 43.7263 14.1857 43.7505 14.0625 43.7505C13.9393 43.7505 13.8173 43.7263 13.7035 43.6791C13.5897 43.632 13.4863 43.5629 13.3992 43.4758C13.3121 43.3887 13.243 43.2853 13.1959 43.1715C13.1487 43.0577 13.1245 42.9357 13.1245 42.8125C13.1245 42.6893 13.1487 42.5673 13.1959 42.4535C13.243 42.3397 13.3121 42.2363 13.3992 42.1492L17.1492 38.3992C17.2363 38.3121 17.3397 38.2429 17.4535 38.1957C17.5673 38.1485 17.6893 38.1243 17.8125 38.1243C17.9357 38.1243 18.0577 38.1485 18.1715 38.1957C18.2853 38.2429 18.3887 38.3121 18.4758 38.3992Z" fill="#D04E47"/>
<path d="M5.5 22.5C4.88125 22.5 4.35175 22.2799 3.9115 21.8396C3.47125 21.3994 3.25075 20.8695 3.25 20.25V6.75C3.25 6.13125 3.4705 5.60175 3.9115 5.1615C4.3525 4.72125 4.882 4.50075 5.5 4.5H23.5C24.1187 4.5 24.6486 4.7205 25.0896 5.1615C25.5306 5.6025 25.7507 6.132 25.75 6.75V20.25C25.75 20.8688 25.5299 21.3986 25.0896 21.8396C24.6494 22.2806 24.1195 22.5008 23.5 22.5H5.5ZM5.5 20.25H16.75V6.75H5.5V20.25ZM19 20.25H23.5V6.75H19V20.25ZM20.125 10.125H22.375V7.875H20.125V10.125ZM21.25 14.625C21.5688 14.625 21.8361 14.517 22.0521 14.301C22.2681 14.085 22.3757 13.818 22.375 13.5C22.3743 13.182 22.2663 12.915 22.051 12.699C21.8358 12.483 21.5688 12.375 21.25 12.375C20.9312 12.375 20.6642 12.483 20.449 12.699C20.2337 12.915 20.1257 13.182 20.125 13.5C20.1243 13.818 20.2323 14.0854 20.449 14.3021C20.6658 14.5189 20.9328 14.6265 21.25 14.625ZM21.25 19.125C21.5688 19.125 21.8361 19.017 22.0521 18.801C22.2681 18.585 22.3757 18.318 22.375 18C22.3743 17.682 22.2663 17.415 22.051 17.199C21.8358 16.983 21.5688 16.875 21.25 16.875C20.9312 16.875 20.6642 16.983 20.449 17.199C20.2337 17.415 20.1257 17.682 20.125 18C20.1243 18.318 20.2323 18.5854 20.449 18.8021C20.6658 19.0189 20.9328 19.1265 21.25 19.125ZM12.5312 18C12.0813 18 11.6924 17.9156 11.3646 17.7469C11.0369 17.5781 10.7507 17.4188 10.5062 17.2688C10.3187 17.1375 10.1688 17.0393 10.0563 16.974C9.94375 16.9088 9.83125 16.8758 9.71875 16.875C9.5125 16.875 9.30625 16.9594 9.1 17.1281C8.89375 17.2969 8.74375 17.4375 8.65 17.55L7.04688 15.975C7.25313 15.75 7.58612 15.4688 8.04588 15.1313C8.50563 14.7938 9.06325 14.625 9.71875 14.625C10.1687 14.625 10.558 14.7143 10.8865 14.8928C11.215 15.0713 11.5008 15.2351 11.7438 15.3844C11.9125 15.4969 12.0625 15.5861 12.1937 15.6521C12.325 15.7181 12.4375 15.7508 12.5312 15.75C12.7375 15.75 12.9438 15.6656 13.15 15.4969C13.3562 15.3281 13.5062 15.1875 13.6 15.075L15.2031 16.65C14.9969 16.875 14.6642 17.1563 14.2052 17.4938C13.7463 17.8313 13.1882 18 12.5312 18ZM12.5312 12.375C12.0813 12.375 11.6924 12.2906 11.3646 12.1219C11.0369 11.9531 10.7507 11.7938 10.5062 11.6438C10.3187 11.5125 10.1688 11.4143 10.0563 11.349C9.94375 11.2838 9.83125 11.2508 9.71875 11.25C9.5125 11.25 9.30625 11.3344 9.1 11.5031C8.89375 11.6719 8.74375 11.8125 8.65 11.925L7.04688 10.35C7.25313 10.125 7.58612 9.84375 8.04588 9.50625C8.50563 9.16875 9.06325 9 9.71875 9C10.1687 9 10.558 9.08925 10.8865 9.26775C11.215 9.44625 11.5008 9.61013 11.7438 9.75938C11.9125 9.87188 12.0625 9.96113 12.1937 10.0271C12.325 10.0931 12.4375 10.1258 12.5312 10.125C12.7375 10.125 12.9438 10.0406 13.15 9.87188C13.3562 9.70312 13.5062 9.5625 13.6 9.45L15.2031 11.025C14.9969 11.25 14.6642 11.5313 14.2052 11.8688C13.7463 12.2063 13.1882 12.375 12.5312 12.375Z" fill="#D04E47"/>
<path d="M40.1276 44.6247V46.4163H36.5443V44.6247C35.5939 44.6247 34.6825 44.2471 34.0105 43.5751C33.3385 42.9031 32.9609 41.9917 32.9609 41.0413V14.1663C32.9609 13.216 33.3385 12.3045 34.0105 11.6325C34.6825 10.9605 35.5939 10.583 36.5443 10.583H54.4609C55.4113 10.583 56.3227 10.9605 56.9947 11.6325C57.6667 12.3045 58.0443 13.216 58.0443 14.1663V41.0413C58.0443 41.9917 57.6667 42.9031 56.9947 43.5751C56.3227 44.2471 55.4113 44.6247 54.4609 44.6247V46.4163H50.8776V44.6247H40.1276ZM36.5443 14.1663V23.1247H54.4609V14.1663H36.5443ZM36.5443 41.0413H54.4609V26.708H36.5443V41.0413ZM38.3359 28.4997H41.9193V33.8747H38.3359V28.4997ZM38.3359 17.7497H41.9193V21.333H38.3359V17.7497Z" fill="#D04E47"/>
</svg>
