<svg width="40" height="40" viewBox="0 0 40 40" fill="none" xmlns="http://www.w3.org/2000/svg">
<path d="M29.1641 10.8337L38.3307 15.0003V36.667L26.6641 31.667M26.6641 31.667L13.3307 36.667M26.6641 31.667V20.0003M13.3307 36.667L1.66406 31.667V10.0003L9.9974 13.3337M13.3307 36.667V20.0003M19.9974 27.122C19.9974 27.122 9.9974 19.167 9.9974 11.667C9.9974 5.41699 14.9974 1.66699 19.9974 1.66699C24.9974 1.66699 29.9974 5.41699 29.9974 11.667C29.9974 19.167 19.9974 27.122 19.9974 27.122ZM21.6641 11.667C21.6641 11.225 21.4885 10.801 21.1759 10.4885C20.8633 10.1759 20.4394 10.0003 19.9974 10.0003C19.5554 10.0003 19.1314 10.1759 18.8189 10.4885C18.5063 10.801 18.3307 11.225 18.3307 11.667C18.3307 12.109 18.5063 12.5329 18.8189 12.8455C19.1314 13.1581 19.5554 13.3337 19.9974 13.3337C20.4394 13.3337 20.8633 13.1581 21.1759 12.8455C21.4885 12.5329 21.6641 12.109 21.6641 11.667Z" stroke="#D04E47" stroke-width="2"/>
</svg>
