<svg width="50" height="50" viewBox="0 0 50 50" fill="none" xmlns="http://www.w3.org/2000/svg">
<g clip-path="url(#clip0_1643_988)">
<path d="M46.8183 24.0136L25.985 3.18025C25.7248 2.92156 25.3728 2.77637 25.0058 2.77637C24.6389 2.77637 24.2869 2.92156 24.0267 3.18025L3.19334 24.0136C2.96581 24.2793 2.84691 24.621 2.86041 24.9706C2.87391 25.3201 3.01882 25.6517 3.26617 25.8991C3.51353 26.1464 3.84511 26.2913 4.19466 26.3048C4.54421 26.3183 4.88598 26.1995 5.15168 25.9719L24.9989 6.12469L44.8461 25.9858C45.1118 26.2133 45.4536 26.3322 45.8031 26.3187C46.1527 26.3052 46.4843 26.1603 46.7316 25.913C46.979 25.6656 47.1239 25.334 47.1374 24.9845C47.1509 24.6349 47.032 24.2932 46.8045 24.0275L46.8183 24.0136Z" fill="#D04E47"/>
<path d="M38.8915 44.4448H31.947V30.5559H18.0582V44.4448H11.1137V25.0003L8.33594 27.7781V44.4448C8.33594 45.1815 8.6286 45.888 9.14953 46.409C9.67046 46.9299 10.377 47.2225 11.1137 47.2225H20.8359V33.3337H29.1693V47.2225H38.8915C39.6282 47.2225 40.3347 46.9299 40.8557 46.409C41.3766 45.888 41.6693 45.1815 41.6693 44.4448V27.4448L38.8915 24.667V44.4448Z" fill="#D04E47"/>
</g>
<defs>
<clipPath id="clip0_1643_988">
<rect width="50" height="50" fill="white"/>
</clipPath>
</defs>
</svg>
