<svg width="37" height="58" viewBox="0 0 37 58" fill="none" xmlns="http://www.w3.org/2000/svg">
<g clip-path="url(#clip0_1643_1076)">
<path d="M7.22656 53.862V36.3255C7.22656 35.6611 7.4905 35.0239 7.96032 34.5541C8.43014 34.0843 9.06735 33.8203 9.73177 33.8203H27.2682C27.9327 33.8203 28.5699 34.0843 29.0397 34.5541C29.5095 35.0239 29.7734 35.6611 29.7734 36.3255V53.862C29.7734 54.5264 29.5095 55.1636 29.0397 55.6334C28.5699 56.1032 27.9327 56.3672 27.2682 56.3672H9.73177C9.06735 56.3672 8.43014 56.1032 7.96032 55.6334C7.4905 55.1636 7.22656 54.5264 7.22656 53.862Z" stroke="#D04E47" stroke-width="1.5"/>
<path d="M26.0104 47.599V42.5885M19.1211 41.9622L20.3737 40.7096M12.8581 41.9622L11.6055 40.7096M11.6055 49.4779L12.8581 48.2253M20.3737 49.4779L19.1211 48.2253M5.96875 40.0833H7.22135M5.96875 37.5781H7.22135M7.22135 50.1042H5.96875M7.22135 52.6094H5.96875M15.9896 48.8516C14.993 48.8516 14.0371 48.4557 13.3324 47.7509C12.6277 47.0462 12.2318 46.0904 12.2318 45.0937C12.2318 44.0971 12.6277 43.1413 13.3324 42.4366C14.0371 41.7318 14.993 41.3359 15.9896 41.3359C16.9862 41.3359 17.942 41.7318 18.6468 42.4366C19.3515 43.1413 19.7474 44.0971 19.7474 45.0937C19.7474 46.0904 19.3515 47.0462 18.6468 47.7509C17.942 48.4557 16.9862 48.8516 15.9896 48.8516Z" stroke="#D04E47" stroke-width="1.5" stroke-linecap="round" stroke-linejoin="round"/>
</g>
<path d="M31.3071 18.4082L22.4117 3.03775C22.1099 2.51347 21.7076 2.05395 21.2278 1.68556C20.748 1.31716 20.2002 1.04715 19.6157 0.891016C19.0313 0.734884 18.4218 0.695705 17.8222 0.775728C17.2226 0.855751 16.6447 1.0534 16.1217 1.35733C15.4125 1.75817 14.8421 2.31317 14.4259 3.03775L5.54586 18.4082C5.24119 18.9285 5.04291 19.5041 4.96252 20.1016C4.88213 20.6992 4.92124 21.3067 5.07758 21.889C5.23391 22.4714 5.50435 23.0168 5.87321 23.4937C6.24207 23.9707 6.70199 24.3696 7.22627 24.6673C7.92002 25.099 8.70627 25.3148 9.52336 25.3148H27.3296C27.9349 25.3128 28.534 25.1916 29.0924 24.9581C29.6509 24.7245 30.158 24.3833 30.5846 23.9538C31.0112 23.5244 31.349 23.0151 31.5788 22.455C31.8086 21.895 31.9258 21.2952 31.9238 20.6898C31.9238 19.8882 31.7079 19.1019 31.3071 18.4082ZM8.27461 19.9344L17.1238 4.57942C17.54 3.85483 18.4959 3.57733 19.205 4.009C19.4517 4.13233 19.6521 4.33275 19.7909 4.57942L28.64 19.9344C29.0563 20.6744 28.8096 21.584 28.0696 22.0311C27.8384 22.1698 27.5763 22.2469 27.3142 22.2469H9.56961C8.72169 22.2315 8.02794 21.5378 8.04336 20.6898C8.04336 20.4278 8.10502 20.1657 8.24377 19.9344H8.27461ZM18.4496 13.7986C16.7538 13.7986 15.4125 12.4265 15.4125 10.7307C15.4125 9.01942 16.7538 7.64733 18.4496 7.64733C19.2674 7.64733 20.0516 7.97219 20.6299 8.55042C21.2081 9.12866 21.5329 9.91292 21.5329 10.7307C21.5329 12.4265 20.1454 13.7986 18.4188 13.7986H18.4496ZM14.58 20.7053C12.8842 20.7053 11.5121 19.3332 11.5121 17.6373C11.5121 15.9415 12.8842 14.5694 14.58 14.5694C16.2759 14.5694 17.6634 15.9415 17.6634 17.6373C17.6634 19.3332 16.2759 20.7053 14.58 20.7053ZM22.2575 20.7053C21.4451 20.7012 20.6671 20.3767 20.0927 19.8022C19.5182 19.2277 19.1937 18.4497 19.1896 17.6373C19.1937 16.8249 19.5182 16.0469 20.0927 15.4725C20.6671 14.898 21.4451 14.5735 22.2575 14.5694C23.9534 14.5694 25.3409 15.9415 25.3409 17.6373C25.3409 19.3332 23.9534 20.7053 22.2575 20.7053Z" fill="#D04E47"/>
<defs>
<clipPath id="clip0_1643_1076">
<rect width="30.0625" height="25.9159" fill="white" transform="translate(3.46875 31.8965)"/>
</clipPath>
</defs>
</svg>
