<svg width="49" height="49" viewBox="0 0 49 49" fill="none" xmlns="http://www.w3.org/2000/svg">
<path d="M4.08246 28.5834H44.9158M12.2491 28.5834V36.7501M20.4158 28.5834V36.7501M28.5825 28.5834V36.7501M36.7491 28.5834V36.7501M37.77 16.3334C34.9116 16.3334 32.4616 14.7001 31.2366 12.2501C30.0769 9.03376 27.7823 6.35175 24.7842 4.70825C21.7861 3.06474 18.2909 2.57292 14.9556 3.32523C11.6204 4.07754 8.67476 6.02218 6.67248 8.7936C4.6702 11.565 3.74915 14.9724 4.08246 18.3751V40.8334C4.08246 41.9164 4.51267 42.955 5.27845 43.7208C6.04422 44.4866 7.08283 44.9168 8.1658 44.9168H40.8325C41.9154 44.9168 42.954 44.4866 43.7198 43.7208C44.4856 42.955 44.9158 41.9164 44.9158 40.8334V23.4793C44.9158 19.6001 41.6491 16.3334 37.77 16.3334Z" stroke="#D04E47" stroke-width="2" stroke-linecap="round" stroke-linejoin="round"/>
</svg>
