<svg width="44" height="44" viewBox="0 0 44 44" fill="none" xmlns="http://www.w3.org/2000/svg">
<path d="M33.4065 31.1667C35.964 34.8114 37.1868 36.7529 36.459 38.3167C36.3857 38.4732 36.3001 38.6241 36.2023 38.7696C35.1482 40.3334 32.4257 40.3334 26.9807 40.3334H17.0183C11.5733 40.3334 8.85268 40.3334 7.79852 38.7696C7.70234 38.6249 7.61657 38.4736 7.54185 38.3167C6.81402 36.7547 8.03685 34.8114 10.5943 31.1667M26.5829 16.5001C26.5829 17.7157 26.1 18.8814 25.2404 19.741C24.3809 20.6005 23.2151 21.0834 21.9995 21.0834C20.7839 21.0834 19.6182 20.6005 18.7586 19.741C17.8991 18.8814 17.4162 17.7157 17.4162 16.5001C17.4162 15.2845 17.8991 14.1187 18.7586 13.2592C19.6182 12.3996 20.7839 11.9167 21.9995 11.9167C23.2151 11.9167 24.3809 12.3996 25.2404 13.2592C26.1 14.1187 26.5829 15.2845 26.5829 16.5001Z" stroke="#D04E47" stroke-width="1.5" stroke-linecap="round" stroke-linejoin="round"/>
<path d="M24.3047 32.0724C23.6855 32.6682 22.8596 33.001 22.0002 33.001C21.1409 33.001 20.315 32.6682 19.6957 32.0724C14.0326 26.5852 6.4444 20.4564 10.1441 11.5574C12.1479 6.74491 16.9512 3.66675 22.0002 3.66675C27.0492 3.66675 31.8544 6.74675 33.8564 11.5574C37.5524 20.4436 29.9826 26.6036 24.3047 32.0724Z" stroke="#D04E47" stroke-width="1.5" stroke-linecap="round" stroke-linejoin="round"/>
</svg>
