<svg width="62" height="62" viewBox="0 0 62 62" fill="none" xmlns="http://www.w3.org/2000/svg">
<path fill-rule="evenodd" clip-rule="evenodd" d="M40.0391 18.0837C40.0391 17.7411 40.1751 17.4125 40.4174 17.1703C40.6596 16.9281 40.9882 16.792 41.3307 16.792H46.4974C46.84 16.792 47.1685 16.9281 47.4107 17.1703C47.653 17.4125 47.7891 17.7411 47.7891 18.0837V20.667H51.6641C52.0066 20.667 52.3352 20.8031 52.5774 21.0453C52.8196 21.2875 52.9557 21.6161 52.9557 21.9587V29.7087H56.8307V32.292H52.9557V40.042C52.9557 40.3846 52.8196 40.7131 52.5774 40.9553C52.3352 41.1976 52.0066 41.3337 51.6641 41.3337H47.7891V43.917C47.7891 44.2596 47.653 44.5881 47.4107 44.8303C47.1685 45.0726 46.84 45.2087 46.4974 45.2087H41.3307C40.9882 45.2087 40.6596 45.0726 40.4174 44.8303C40.1751 44.5881 40.0391 44.2596 40.0391 43.917V32.292H21.9557V43.917C21.9557 44.2596 21.8196 44.5881 21.5774 44.8303C21.3352 45.0726 21.0066 45.2087 20.6641 45.2087H15.4974C15.1548 45.2087 14.8263 45.0726 14.5841 44.8303C14.3418 44.5881 14.2057 44.2596 14.2057 43.917V41.3337H10.3307C9.98816 41.3337 9.65962 41.1976 9.41738 40.9553C9.17515 40.7131 9.03906 40.3846 9.03906 40.042V32.292H5.16406V29.7087H9.03906V21.9587C9.03906 21.6161 9.17515 21.2875 9.41738 21.0453C9.65962 20.8031 9.98816 20.667 10.3307 20.667H14.2057V18.0837C14.2057 17.7411 14.3418 17.4125 14.5841 17.1703C14.8263 16.9281 15.1548 16.792 15.4974 16.792H20.6641C21.0066 16.792 21.3352 16.9281 21.5774 17.1703C21.8196 17.4125 21.9557 17.7411 21.9557 18.0837V29.7087H40.0391V18.0837ZM16.7891 42.6253H19.3724V19.3753H16.7891V42.6253ZM14.2057 23.2503H11.6224V38.7503H14.2057V23.2503ZM47.7891 38.7503V23.2503H50.3724V38.7503H47.7891ZM45.2057 19.3753V42.6253H42.6224V19.3753H45.2057Z" fill="#D04E47"/>
</svg>
