<svg width="39" height="47" viewBox="0 0 39 47" fill="none" xmlns="http://www.w3.org/2000/svg">
<path d="M19.5 25.709C23.1589 25.709 26.125 22.7429 26.125 19.084C26.125 15.4251 23.1589 12.459 19.5 12.459C15.8411 12.459 12.875 15.4251 12.875 19.084C12.875 22.7429 15.8411 25.709 19.5 25.709Z" stroke="#D04E47" stroke-width="2" stroke-linecap="round" stroke-linejoin="round"/>
<path d="M19.5026 1.41699C14.8171 1.41699 10.3235 3.2783 7.01038 6.59144C3.69724 9.90458 1.83594 14.3982 1.83594 19.0837C1.83594 23.2618 2.72369 25.9957 5.14844 29.0212L19.5026 45.5837L33.8568 29.0212C36.2815 25.9957 37.1693 23.2618 37.1693 19.0837C37.1693 14.3982 35.308 9.90458 31.9948 6.59144C28.6817 3.2783 24.1881 1.41699 19.5026 1.41699Z" stroke="#D04E47" stroke-width="2" stroke-linecap="round" stroke-linejoin="round"/>
</svg>
