<svg width="52" height="52" viewBox="0 0 52 52" fill="none" xmlns="http://www.w3.org/2000/svg">
<path d="M29.18 6.651C27.0103 5.783 24.5897 5.783 22.42 6.651L7.4518 12.644C6.72876 12.9332 6.10885 13.4322 5.67188 14.0767C5.23491 14.7213 5.00091 15.4819 5 16.2606V36.1402C4.99987 36.9198 5.23339 37.6815 5.67042 38.3271C6.10746 38.9727 6.72794 39.4725 7.4518 39.762L22.42 45.7498C24.5897 46.6178 27.0103 46.6178 29.18 45.7498L44.1482 39.762C44.8721 39.4725 45.4925 38.9727 45.9296 38.3271C46.3666 37.6815 46.6001 36.9198 46.6 36.1402V16.2606C46.5996 15.4814 46.3658 14.7203 45.9288 14.0752C45.4918 13.4301 44.8716 12.9307 44.1482 12.6414L29.18 6.651ZM23.3872 9.069C24.9369 8.4491 26.6657 8.4491 28.2154 9.069L41.8004 14.503L35.875 16.869L19.8746 10.473L23.3872 9.069ZM16.375 11.8692L32.3754 18.2678L25.8 20.9016L9.7996 14.5004L16.375 11.8692ZM27.1 23.1792L44 16.4192V36.1376C44.0005 36.3977 43.9229 36.6519 43.7774 36.8674C43.6318 37.0829 43.425 37.2499 43.1836 37.3466L28.2154 43.3344C27.8514 43.4783 27.4796 43.5892 27.1 43.6672V23.1792ZM24.5 23.1792V43.6672C24.1199 43.5897 23.7475 43.4783 23.3872 43.3344L8.4164 37.3466C8.17541 37.25 7.96886 37.0835 7.82336 36.8685C7.67785 36.6535 7.60006 36.3998 7.6 36.1402V16.4218L24.5 23.1792Z" fill="#D04E47"/>
</svg>
