<svg aria-hidden="true" style="position: absolute; width: 0; height: 0; overflow: hidden;" version="1.1" xmlns="http://www.w3.org/2000/svg" xmlns:xlink="http://www.w3.org/1999/xlink">
<defs>
<symbol id="icon-service-box" viewBox="0 0 32 32">
<path d="M17.957 4.093c-1.335-0.534-2.825-0.534-4.16 0l-9.211 3.688c-0.445 0.178-0.826 0.485-1.095 0.882s-0.413 0.865-0.413 1.344v12.234c-0 0.48 0.144 0.948 0.413 1.346s0.651 0.705 1.096 0.883l9.211 3.685c1.335 0.534 2.825 0.534 4.16 0l9.211-3.685c0.445-0.178 0.827-0.486 1.096-0.883s0.413-0.866 0.413-1.346v-12.234c-0-0.479-0.144-0.948-0.413-1.345s-0.651-0.704-1.096-0.882l-9.211-3.686zM14.392 5.581c0.954-0.381 2.018-0.381 2.971 0l8.36 3.344-3.646 1.456-9.846-3.936 2.162-0.864zM10.077 7.304l9.846 3.938-4.046 1.621-9.846-3.939 4.046-1.619zM16.677 14.264l10.4-4.16v12.134c0 0.16-0.047 0.317-0.137 0.449s-0.217 0.235-0.365 0.295l-9.211 3.685c-0.224 0.089-0.453 0.157-0.686 0.205v-12.608zM15.077 14.264v12.608c-0.234-0.048-0.463-0.116-0.685-0.205l-9.213-3.685c-0.148-0.059-0.275-0.162-0.365-0.294s-0.137-0.288-0.137-0.448v-12.134l10.4 4.158z"></path>
</symbol>
<symbol id="icon-service-cleaning" viewBox="0 0 32 32">
<path d="M13.154 10.821l1.485-2.821v-1.027h-1.845v-1.64h7.488v1.949l-1.18 2.359h-2.564v-1.385l-2.461 2.565h-0.923zM11.718 28v-8.259l4.82-9.075h3.18v17.333h-8zM13.051 26.666h5.333v-14.667h-1.041l-4.293 8.107 0.001 6.56z"></path>
</symbol>
<symbol id="icon-service-electrical" viewBox="0 0 32 32">
<path d="M11.642 16.597h-8.955c-0.237 0-0.465 0.094-0.633 0.262s-0.262 0.396-0.262 0.633v8.955c0 0.238 0.094 0.465 0.262 0.633s0.396 0.262 0.633 0.262h8.955c0.238 0 0.465-0.094 0.633-0.262s0.262-0.396 0.262-0.633v-8.955c0-0.238-0.094-0.465-0.262-0.633s-0.396-0.262-0.633-0.262zM11.642 26.448h-8.955v-8.955h8.955v8.955zM7.164 18.388c-0.708 0-1.401 0.21-1.99 0.604s-1.048 0.953-1.319 1.608c-0.271 0.655-0.342 1.375-0.204 2.070s0.479 1.333 0.98 1.834 1.139 0.842 1.834 0.98c0.695 0.138 1.415 0.067 2.070-0.204s1.214-0.73 1.608-1.319c0.394-0.589 0.604-1.282 0.604-1.99-0.001-0.95-0.379-1.86-1.050-2.532s-1.582-1.049-2.532-1.050zM7.164 24.657c-0.531 0-1.051-0.158-1.493-0.453s-0.786-0.715-0.989-1.206c-0.203-0.491-0.257-1.031-0.153-1.552s0.36-1 0.735-1.376c0.376-0.376 0.854-0.632 1.376-0.735s1.061-0.050 1.552 0.153c0.491 0.203 0.91 0.548 1.206 0.989s0.453 0.961 0.453 1.493c-0.001 0.712-0.284 1.395-0.788 1.899s-1.187 0.787-1.899 0.788zM11.194 18.612c0 0.133-0.039 0.263-0.113 0.373s-0.179 0.197-0.301 0.247c-0.123 0.051-0.258 0.064-0.388 0.038s-0.25-0.090-0.344-0.184c-0.094-0.094-0.158-0.214-0.184-0.344s-0.013-0.265 0.038-0.388c0.051-0.123 0.137-0.228 0.247-0.301s0.24-0.113 0.373-0.113c0.178 0 0.349 0.071 0.475 0.197s0.197 0.297 0.197 0.475zM7.033 21.391l-0.896 0.896c-0.084 0.084-0.198 0.131-0.317 0.131s-0.233-0.047-0.317-0.131c-0.084-0.084-0.131-0.198-0.131-0.317s0.047-0.233 0.131-0.317l0.896-0.896c0.084-0.084 0.198-0.131 0.317-0.131s0.233 0.047 0.317 0.131c0.084 0.084 0.131 0.198 0.131 0.317s-0.047 0.233-0.131 0.317zM8.824 21.206c0.042 0.042 0.075 0.091 0.097 0.145s0.034 0.113 0.034 0.171c0 0.059-0.012 0.117-0.034 0.171s-0.056 0.104-0.097 0.145l-1.791 1.791c-0.042 0.042-0.091 0.075-0.145 0.097s-0.113 0.034-0.171 0.034-0.117-0.012-0.171-0.034c-0.054-0.023-0.104-0.055-0.145-0.097s-0.075-0.091-0.097-0.145c-0.023-0.054-0.034-0.113-0.034-0.171s0.012-0.117 0.034-0.171c0.022-0.054 0.056-0.104 0.097-0.145l1.791-1.791c0.042-0.042 0.091-0.075 0.145-0.097s0.113-0.034 0.171-0.034c0.059 0 0.117 0.012 0.171 0.034s0.104 0.056 0.145 0.097z"></path>
<path d="M2.627 13.612c-0.296 0-0.548-0.105-0.759-0.315s-0.316-0.463-0.316-0.759v-6.448c0-0.296 0.105-0.548 0.316-0.759s0.464-0.316 0.759-0.316h8.597c0.296 0 0.549 0.105 0.759 0.316s0.316 0.464 0.315 0.759v6.448c0 0.296-0.105 0.549-0.315 0.759s-0.463 0.316-0.759 0.315h-8.597zM2.627 12.537h5.373v-6.448h-5.373v6.448zM9.075 12.537h2.149v-6.448h-2.149v6.448zM9.612 7.702h1.075v-1.075h-1.075v1.075zM10.149 9.851c0.152 0 0.28-0.052 0.383-0.155s0.155-0.231 0.154-0.383c-0-0.152-0.052-0.279-0.155-0.383s-0.23-0.155-0.383-0.155-0.28 0.052-0.383 0.155c-0.103 0.103-0.154 0.231-0.155 0.383s0.051 0.28 0.155 0.383c0.104 0.104 0.231 0.155 0.383 0.154zM10.149 12c0.152 0 0.28-0.052 0.383-0.155s0.155-0.231 0.154-0.383c-0-0.152-0.052-0.279-0.155-0.383s-0.23-0.155-0.383-0.155-0.28 0.052-0.383 0.155c-0.103 0.103-0.154 0.231-0.155 0.383s0.051 0.28 0.155 0.383c0.104 0.104 0.231 0.155 0.383 0.154zM5.985 11.463c-0.215 0-0.401-0.040-0.557-0.121s-0.293-0.157-0.41-0.228c-0.090-0.063-0.161-0.11-0.215-0.141s-0.107-0.047-0.161-0.047c-0.098 0-0.197 0.040-0.296 0.121s-0.17 0.148-0.215 0.201l-0.766-0.752c0.099-0.107 0.258-0.242 0.477-0.403s0.486-0.242 0.799-0.242c0.215 0 0.401 0.043 0.558 0.128s0.293 0.164 0.409 0.235c0.081 0.054 0.152 0.096 0.215 0.128s0.116 0.047 0.161 0.047c0.099 0 0.197-0.040 0.296-0.121s0.17-0.148 0.215-0.201l0.766 0.752c-0.098 0.107-0.257 0.242-0.477 0.403s-0.486 0.242-0.8 0.242zM5.985 8.776c-0.215 0-0.401-0.040-0.557-0.121s-0.293-0.157-0.41-0.228c-0.090-0.063-0.161-0.11-0.215-0.141s-0.107-0.047-0.161-0.047c-0.098 0-0.197 0.040-0.296 0.121s-0.17 0.148-0.215 0.201l-0.766-0.752c0.099-0.107 0.258-0.242 0.477-0.403s0.486-0.242 0.799-0.242c0.215 0 0.401 0.043 0.558 0.128s0.293 0.164 0.409 0.235c0.081 0.054 0.152 0.096 0.215 0.128s0.116 0.047 0.161 0.047c0.099 0 0.197-0.040 0.296-0.121s0.17-0.148 0.215-0.202l0.766 0.752c-0.098 0.107-0.257 0.242-0.477 0.403s-0.486 0.242-0.8 0.242z"></path>
<path d="M19.165 24.179v0.856h-1.711v-0.856c-0.454 0-0.889-0.18-1.21-0.501s-0.501-0.756-0.501-1.21v-12.836c0-0.454 0.18-0.889 0.501-1.21s0.756-0.501 1.21-0.501h8.557c0.454 0 0.889 0.18 1.21 0.501s0.501 0.756 0.501 1.21v12.836c0 0.454-0.18 0.889-0.501 1.21s-0.756 0.501-1.21 0.501v0.856h-1.711v-0.856h-5.134zM17.454 9.632v4.279h8.557v-4.279h-8.557zM17.454 22.468h8.557v-6.846h-8.557v6.846zM18.31 16.477h1.711v2.567h-1.711v-2.567zM18.31 11.343h1.711v1.711h-1.711v-1.711z"></path>
</symbol>
<symbol id="icon-service-garbage" viewBox="0 0 32 32">
<path d="M7.998 25.333c0 0.707 0.281 1.386 0.781 1.886s1.178 0.781 1.886 0.781h10.667c0.707 0 1.386-0.281 1.886-0.781s0.781-1.178 0.781-1.886v-16h-16v16zM10.665 12h10.667v13.333h-10.667v-13.333zM20.665 5.333l-1.333-1.333h-6.667l-1.333 1.333h-4.667v2.667h18.667v-2.667h-4.667z"></path>
</symbol>
<symbol id="icon-service-gym" viewBox="0 0 32 32">
<path d="M20.665 9.334v6h-9.333v-6c0-0.177-0.070-0.346-0.195-0.471s-0.295-0.195-0.471-0.195h-2.667c-0.177 0-0.346 0.070-0.471 0.195s-0.195 0.295-0.195 0.471v1.333h-2c-0.177 0-0.346 0.070-0.471 0.195s-0.195 0.295-0.195 0.471v4h-2v1.333h2v4c0 0.177 0.070 0.346 0.195 0.471s0.295 0.195 0.471 0.195h2v1.333c0 0.177 0.070 0.346 0.195 0.471s0.295 0.195 0.471 0.195h2.667c0.177 0 0.346-0.070 0.471-0.195s0.195-0.295 0.195-0.471v-6h9.333v6c0 0.177 0.070 0.346 0.195 0.471s0.295 0.195 0.471 0.195h2.667c0.177 0 0.346-0.070 0.471-0.195s0.195-0.295 0.195-0.471v-1.333h2c0.177 0 0.346-0.070 0.471-0.195s0.195-0.295 0.195-0.471v-4h2v-1.333h-2v-4c0-0.177-0.070-0.346-0.195-0.471s-0.295-0.195-0.471-0.195h-2v-1.333c0-0.177-0.070-0.346-0.195-0.471s-0.295-0.195-0.471-0.195h-2.667c-0.177 0-0.346 0.070-0.471 0.195s-0.195 0.295-0.195 0.471zM8.665 22v-12h1.333v12h-1.333zM7.332 12v8h-1.333v-8h1.333zM24.665 20v-8h1.333v8h-1.333zM23.332 10v12h-1.333v-12h1.333z"></path>
</symbol>
<symbol id="icon-service-house" viewBox="0 0 32 32">
<path d="M29.964 15.369l-13.333-13.333c-0.167-0.166-0.392-0.258-0.627-0.258s-0.46 0.093-0.627 0.258l-13.333 13.333c-0.146 0.17-0.222 0.389-0.213 0.612s0.101 0.436 0.26 0.594c0.158 0.158 0.371 0.251 0.594 0.26s0.442-0.067 0.612-0.213l12.702-12.702 12.702 12.711c0.17 0.146 0.389 0.222 0.612 0.213s0.436-0.101 0.594-0.26c0.158-0.158 0.251-0.371 0.26-0.594s-0.067-0.442-0.213-0.612l0.009-0.009z"></path>
<path d="M24.891 28.445h-4.444v-8.889h-8.889v8.889h-4.444v-12.444l-1.778 1.778v10.667c0 0.471 0.187 0.924 0.521 1.257s0.786 0.521 1.257 0.521h6.222v-8.889h5.333v8.889h6.222c0.471 0 0.924-0.187 1.257-0.521s0.521-0.786 0.521-1.257v-10.88l-1.778-1.778v12.658z"></path>
</symbol>
<symbol id="icon-service-location" viewBox="0 0 32 32">
<path  stroke-linejoin="round" stroke-linecap="round" stroke-miterlimit="4" stroke-width="1.3617" d="M16 17.504c2.491 0 4.511-2.019 4.511-4.511s-2.019-4.511-4.511-4.511c-2.491 0-4.511 2.019-4.511 4.511s2.019 4.511 4.511 4.511z"></path>
<path  stroke-linejoin="round" stroke-linecap="round" stroke-miterlimit="4" stroke-width="1.3617" d="M16.002 0.965c-3.19 0-6.25 1.267-8.505 3.523s-3.523 5.315-3.523 8.505c0 2.845 0.604 4.706 2.255 6.766l9.773 11.277 9.773-11.277c1.651-2.060 2.255-3.921 2.255-6.766 0-3.19-1.267-6.25-3.523-8.505s-5.315-3.523-8.505-3.523z"></path>
</symbol>
<symbol id="icon-service-location2" viewBox="0 0 32 32">
<path stroke-linejoin="round" stroke-linecap="round" stroke-miterlimit="4" stroke-width="1.0909" d="M24.296 22.667c1.86 2.651 2.749 4.063 2.22 5.2-0.053 0.114-0.116 0.224-0.187 0.329-0.767 1.137-2.747 1.137-6.707 1.137h-7.245c-3.96 0-5.939 0-6.705-1.137-0.070-0.105-0.132-0.215-0.187-0.329-0.529-1.136 0.36-2.549 2.22-5.2M19.333 12c0 0.884-0.351 1.732-0.976 2.357s-1.473 0.976-2.357 0.976-1.732-0.351-2.357-0.976c-0.625-0.625-0.976-1.473-0.976-2.357s0.351-1.732 0.976-2.357c0.625-0.625 1.473-0.976 2.357-0.976s1.732 0.351 2.357 0.976c0.625 0.625 0.976 1.473 0.976 2.357z"></path>
<path stroke-linejoin="round" stroke-linecap="round" stroke-miterlimit="4" stroke-width="1.0909" d="M17.676 23.325c-0.45 0.433-1.051 0.675-1.676 0.675s-1.226-0.242-1.676-0.675c-4.119-3.991-9.637-8.448-6.947-14.92 1.457-3.5 4.951-5.739 8.623-5.739s7.167 2.24 8.623 5.739c2.688 6.463-2.817 10.943-6.947 14.92z"></path>
</symbol>
<symbol id="icon-service-man" viewBox="0 0 32 32">
<path d="M19.589 3.64c0-0.952-0.378-1.864-1.051-2.537s-1.586-1.051-2.537-1.051c-0.952 0-1.864 0.378-2.537 1.051s-1.051 1.586-1.051 2.537 0.378 1.864 1.051 2.537c0.673 0.673 1.586 1.051 2.537 1.051s1.864-0.378 2.537-1.051c0.673-0.673 1.051-1.586 1.051-2.537zM17.995 3.64c0 0.529-0.21 1.036-0.584 1.41s-0.881 0.584-1.41 0.584c-0.529 0-1.036-0.21-1.41-0.584s-0.584-0.881-0.584-1.41c0-0.529 0.21-1.036 0.584-1.41s0.881-0.584 1.41-0.584c0.529 0 1.036 0.21 1.41 0.584s0.584 0.881 0.584 1.41zM12.793 8.823h6.464c0.926 0 1.844 0.209 2.674 0.711 0.827 0.5 1.422 1.205 1.836 1.976 0.785 1.46 1.005 3.306 1.005 5.148v0.070l-0.003 0.070-0.006 0.070c-0.006 0.060-0.009 0.261-0.004 0.734l0.004 0.332v0.003c0.004 0.36 0.010 0.789 0.010 1.252 0 0.383-0.091 0.76-0.267 1.1s-0.431 0.633-0.743 0.854c-0.313 0.221-0.674 0.364-1.053 0.417s-0.765 0.014-1.126-0.114v8.109c0.003 0.618-0.233 1.213-0.658 1.661s-1.008 0.714-1.625 0.742c-0.617 0.028-1.221-0.184-1.686-0.591s-0.753-0.979-0.806-1.594l-0.672-7.393h-0.27l-0.671 7.393c-0.055 0.614-0.345 1.183-0.809 1.588s-1.067 0.616-1.682 0.588c-0.616-0.028-1.197-0.292-1.622-0.738s-0.662-1.038-0.662-1.655v-8.093c-0.359 0.118-0.742 0.15-1.115 0.092s-0.729-0.204-1.035-0.426c-0.306-0.222-0.556-0.513-0.728-0.85s-0.262-0.71-0.262-1.088c0-0.464 0.006-0.893 0.010-1.253v-0.002l0.004-0.332c0.005-0.473 0.001-0.674-0.004-0.734l-0.006-0.070c-0.002-0.023-0.003-0.046-0.003-0.070v-0.070c0-1.842 0.219-3.689 1.005-5.148 0.415-0.772 1.009-1.476 1.836-1.976 0.829-0.502 1.748-0.711 2.673-0.711zM9.672 19.987c0.163 0 0.322-0.050 0.456-0.143s0.236-0.225 0.292-0.377v-5.461h1.595v15.549c-0 0.205 0.079 0.403 0.221 0.551s0.336 0.237 0.541 0.246c0.205 0.009 0.406-0.061 0.561-0.196s0.251-0.325 0.27-0.529l0.738-8.117c0.018-0.198 0.109-0.382 0.256-0.517s0.338-0.209 0.537-0.209h1.727c0.199 0 0.391 0.074 0.538 0.209s0.238 0.319 0.256 0.517l0.738 8.117c0.018 0.205 0.115 0.394 0.27 0.529s0.355 0.205 0.561 0.196c0.205-0.009 0.399-0.097 0.541-0.246s0.221-0.346 0.221-0.551v-15.549h1.595v5.201c0.002 0.212 0.089 0.413 0.24 0.561s0.355 0.229 0.567 0.227c0.212-0.002 0.413-0.089 0.561-0.24s0.229-0.355 0.227-0.567c0-0.454-0.006-0.874-0.010-1.236v-0.010l-0.004-0.325c-0.008-0.297-0.005-0.594 0.010-0.891l0.003-0.035v-0.035c0-1.764-0.219-3.286-0.815-4.393-0.305-0.567-0.717-1.040-1.257-1.367s-1.164-0.481-1.848-0.481h-6.464c-0.683 0-1.306 0.153-1.848 0.481s-0.952 0.8-1.257 1.367c-0.595 1.107-0.814 2.629-0.814 4.394v0.034l0.003 0.035c0.014 0.155 0.015 0.447 0.010 0.891l-0.004 0.334c-0.004 0.361-0.010 0.782-0.010 1.236 0 0.212 0.084 0.414 0.234 0.564s0.352 0.234 0.564 0.234z"></path>
</symbol>
<symbol id="icon-service-map" viewBox="0 0 32 32">
<path stroke-linejoin="miter" stroke-linecap="butt" stroke-miterlimit="4" stroke-width="1.6" d="M23.331 8.667l7.333 3.333v17.333l-9.333-4M21.331 25.334l-10.667 4M21.331 25.334v-9.333M10.665 29.334l-9.333-4v-17.333l6.667 2.667M10.665 29.334v-13.333M15.998 21.698c0 0-8-6.364-8-12.364 0-5 4-8 8-8s8 3 8 8c0 6-8 12.364-8 12.364zM17.331 9.334c0-0.354-0.14-0.693-0.391-0.943s-0.589-0.391-0.943-0.391-0.693 0.14-0.943 0.391c-0.25 0.25-0.391 0.589-0.391 0.943s0.14 0.693 0.391 0.943c0.25 0.25 0.589 0.391 0.943 0.391s0.693-0.14 0.943-0.391c0.25-0.25 0.391-0.589 0.391-0.943z"></path>
</symbol>
<symbol id="icon-service-piano" viewBox="0 0 32 32">
<path stroke-linejoin="round" stroke-linecap="round" stroke-miterlimit="4" stroke-width="1.3061" d="M2.666 18.667h26.667M7.999 18.667v5.333M13.333 18.667v5.333M18.666 18.667v5.333M23.999 18.667v5.333M24.666 10.667c-1.867 0-3.467-1.067-4.267-2.667-0.757-2.1-2.256-3.852-4.214-4.925s-4.241-1.395-6.419-0.903c-2.178 0.491-4.102 1.761-5.409 3.571s-1.909 4.035-1.691 6.257v14.667c0 0.707 0.281 1.386 0.781 1.886s1.178 0.781 1.886 0.781h21.333c0.707 0 1.385-0.281 1.886-0.781s0.781-1.178 0.781-1.886v-11.333c0-2.533-2.133-4.667-4.667-4.667z"></path>
</symbol>
<symbol id="icon-service-pool" viewBox="0 0 32 32">
<path stroke-linejoin="miter" stroke-linecap="butt" stroke-miterlimit="4" stroke-width="0.8276" d="M9.78 29.717v-9.675c0-0.367 0.146-0.718 0.405-0.977s0.611-0.405 0.977-0.405h9.675c0.367 0 0.718 0.146 0.977 0.405s0.405 0.611 0.405 0.977v9.675c0 0.367-0.146 0.718-0.405 0.977s-0.611 0.405-0.977 0.405h-9.675c-0.367 0-0.718-0.146-0.977-0.405s-0.405-0.611-0.405-0.977z"></path>
<path stroke-linejoin="round" stroke-linecap="round" stroke-miterlimit="4" stroke-width="0.8276" d="M20.144 26.262v-2.764M16.343 23.152l0.691-0.691M12.887 23.152l-0.691-0.691M12.196 27.298l0.691-0.691M17.034 27.298l-0.691-0.691M9.086 22.115h0.691M9.086 20.733h0.691M9.777 27.644h-0.691M9.777 29.026h-0.691M14.615 26.953c-0.55 0-1.077-0.218-1.466-0.607s-0.607-0.916-0.607-1.466c0-0.55 0.218-1.077 0.607-1.466s0.916-0.607 1.466-0.607 1.077 0.218 1.466 0.607c0.389 0.389 0.607 0.916 0.607 1.466s-0.218 1.077-0.607 1.466c-0.389 0.389-0.916 0.607-1.466 0.607z"></path>
<path d="M23.066 10.156l-4.908-8.48c-0.166-0.289-0.388-0.543-0.653-0.746s-0.567-0.352-0.889-0.438c-0.322-0.086-0.659-0.108-0.99-0.064s-0.65 0.153-0.938 0.321c-0.391 0.221-0.706 0.527-0.936 0.927l-4.899 8.48c-0.168 0.287-0.277 0.605-0.322 0.934s-0.023 0.665 0.063 0.986c0.086 0.321 0.235 0.622 0.439 0.885s0.457 0.483 0.747 0.647c0.383 0.238 0.817 0.357 1.267 0.357h9.824c0.334-0.001 0.665-0.068 0.973-0.197s0.588-0.317 0.823-0.554c0.235-0.237 0.422-0.518 0.549-0.827s0.191-0.64 0.19-0.974c0-0.442-0.119-0.876-0.34-1.259zM10.358 10.998l4.882-8.472c0.23-0.4 0.757-0.553 1.148-0.315 0.136 0.068 0.247 0.179 0.323 0.315l4.882 8.472c0.23 0.408 0.094 0.91-0.315 1.157-0.128 0.077-0.272 0.119-0.417 0.119h-9.79c-0.468-0.008-0.851-0.391-0.842-0.859 0-0.145 0.034-0.289 0.111-0.417h0.017zM15.972 7.613c-0.936 0-1.676-0.757-1.676-1.693 0-0.944 0.74-1.701 1.676-1.701 0.451 0 0.884 0.179 1.203 0.498s0.498 0.752 0.498 1.203c0 0.936-0.766 1.693-1.718 1.693h0.017zM13.837 11.424c-0.936 0-1.693-0.757-1.693-1.693s0.757-1.693 1.693-1.693c0.936 0 1.701 0.757 1.701 1.693s-0.766 1.693-1.701 1.693zM18.073 11.424c-0.448-0.002-0.877-0.181-1.194-0.498s-0.496-0.746-0.498-1.194c0.002-0.448 0.181-0.877 0.498-1.194s0.746-0.496 1.194-0.498c0.936 0 1.701 0.757 1.701 1.693s-0.766 1.693-1.701 1.693z"></path>
</symbol>
<symbol id="icon-service-unbox" viewBox="0 0 32 32">
<path stroke-linejoin="round" stroke-linecap="round" stroke-miterlimit="4" stroke-width="1.4545" d="M16.002 31.152v-13.636M20.805 1.167c0.377-0.211 0.802-0.322 1.235-0.322s0.857 0.111 1.235 0.322l6.364 3.576c0.451 0.255 0.826 0.625 1.086 1.072s0.398 0.956 0.398 1.473-0.137 1.026-0.398 1.473c-0.261 0.447-0.636 0.817-1.086 1.072l-18.455 10.394c-0.379 0.215-0.807 0.328-1.242 0.328s-0.864-0.113-1.242-0.328l-6.333-3.576c-0.451-0.255-0.826-0.625-1.087-1.072s-0.398-0.956-0.398-1.473c0-0.518 0.137-1.026 0.398-1.473s0.636-0.817 1.087-1.072l18.439-10.394z"></path>
<path stroke-linejoin="round" stroke-linecap="round" stroke-miterlimit="4" stroke-width="1.4545" d="M28.123 17.516v5.864c0.001 0.572-0.156 1.133-0.453 1.622s-0.722 0.887-1.229 1.151l-9.091 4.667c-0.417 0.216-0.879 0.329-1.349 0.329s-0.932-0.113-1.348-0.329l-9.091-4.667c-0.507-0.264-0.933-0.662-1.229-1.151s-0.453-1.050-0.453-1.622v-5.864"></path>
<path stroke-linejoin="round" stroke-linecap="round" stroke-miterlimit="4" stroke-width="1.4545" d="M29.638 16.652c0.451-0.255 0.826-0.625 1.086-1.072s0.398-0.956 0.398-1.473-0.137-1.026-0.398-1.473c-0.261-0.447-0.636-0.817-1.086-1.072l-18.439-10.409c-0.376-0.215-0.802-0.329-1.235-0.329s-0.859 0.113-1.235 0.329l-6.364 3.591c-0.451 0.255-0.826 0.625-1.087 1.072s-0.398 0.956-0.398 1.473c0 0.518 0.137 1.026 0.398 1.473s0.636 0.817 1.087 1.072l18.455 10.394c0.376 0.215 0.802 0.328 1.235 0.328s0.859-0.113 1.235-0.328l6.349-3.576z"></path>
</symbol>
</defs>
</svg>
