<svg width="17" height="18" viewBox="0 0 17 18" fill="none" xmlns="http://www.w3.org/2000/svg">
<path d="M15.2105 4.94739V8.89476M1 4.94739V12.9692C1 14.0611 2.53632 14.71 5.60816 16.0071C6.84211 16.529 7.45947 16.7895 8.10526 16.7895V8.38555M10.4737 14.4211C10.4737 14.4211 11.1645 14.4211 11.8553 16C11.8553 16 14.05 12.0527 16 11.2632" stroke="#D04E47" stroke-width="1.4" stroke-linecap="round" stroke-linejoin="round"/>
<path d="M3.36842 8.89474L4.94737 9.68421M12.0526 2.57895L4.15789 6.52632M5.20474 7.07184L2.89868 5.95632C1.63316 5.34368 1 5.03737 1 4.55263C1 4.06789 1.63316 3.76158 2.89868 3.14895L5.20395 2.03342C6.62895 1.34421 7.33947 1 8.10526 1C8.87105 1 9.58237 1.34421 11.0058 2.03342L13.3118 3.14895C14.5774 3.76158 15.2105 4.06789 15.2105 4.55263C15.2105 5.03737 14.5774 5.34368 13.3118 5.95632L11.0066 7.07184C9.58158 7.76105 8.87105 8.10526 8.10526 8.10526C7.33947 8.10526 6.62816 7.76105 5.20474 7.07184Z" stroke="#D04E47" stroke-width="1.4" stroke-linecap="round" stroke-linejoin="round"/>
</svg>
