<svg width="16" height="17" viewBox="0 0 16 17" fill="none" xmlns="http://www.w3.org/2000/svg">
<path d="M16 12.325C16 12.648 15.8133 12.9285 15.5289 13.073L8.50667 16.847C8.36445 16.949 8.18667 17 8 17C7.81334 17 7.63556 16.949 7.49334 16.847L0.471116 13.073C0.328545 13.0015 0.20923 12.8939 0.126163 12.762C0.0430956 12.6301 -0.000540689 12.479 5.057e-06 12.325V4.675C5.057e-06 4.352 0.186672 4.0715 0.471116 3.927L7.49334 0.153C7.63556 0.0510001 7.81334 0 8 0C8.18667 0 8.36445 0.0510001 8.50667 0.153L15.5289 3.927C15.8133 4.0715 16 4.352 16 4.675V12.325ZM8 1.8275L2.70223 4.675L8 7.5225L13.2978 4.675L8 1.8275ZM1.77778 11.8235L7.11111 14.6965V8.993L1.77778 6.1285V11.8235ZM14.2222 11.8235V6.1285L8.88889 8.993V14.6965L14.2222 11.8235Z" fill="#D04E47"/>
</svg>
