<svg width="178" height="56" viewBox="0 0 178 56" fill="none" xmlns="http://www.w3.org/2000/svg">
<path d="M84.8748 51.8638C84.8748 51.3727 84.963 50.8956 85.1429 50.4221C85.3194 49.952 85.5805 49.5205 85.9228 49.1346C86.265 48.7452 86.6814 48.4365 87.1719 48.2085C87.6659 47.9805 88.2234 47.8647 88.8551 47.8647C89.5961 47.8647 90.2383 48.0261 90.7817 48.3524C91.3216 48.6751 91.7274 49.0996 91.992 49.6187L90.7887 50.4431C90.6511 50.1414 90.4747 49.9029 90.2559 49.724C90.0371 49.5486 89.8007 49.4223 89.5502 49.3521C89.2997 49.282 89.0527 49.2434 88.8127 49.2434C88.4175 49.2434 88.0752 49.3241 87.7824 49.4819C87.4895 49.6398 87.246 49.8468 87.0484 50.1028C86.8508 50.3589 86.7061 50.6466 86.6108 50.9623C86.5156 51.278 86.4697 51.5937 86.4697 51.9129C86.4697 52.2673 86.5262 52.6075 86.6391 52.9338C86.752 53.26 86.9143 53.5512 87.1225 53.8037C87.3307 54.0563 87.5812 54.2563 87.8741 54.4036C88.167 54.5509 88.4845 54.6246 88.8339 54.6246C89.0844 54.6246 89.3385 54.5825 89.5961 54.5018C89.8537 54.4176 90.0936 54.2878 90.3124 54.1054C90.5312 53.923 90.7041 53.6915 90.824 53.4038L92.1084 54.137C91.9497 54.5369 91.6885 54.8737 91.3286 55.1543C90.9687 55.4314 90.5664 55.6454 90.1183 55.7858C89.6702 55.9296 89.2291 55.9997 88.788 55.9997C88.2128 55.9997 87.6871 55.8805 87.2072 55.6454C86.7308 55.4069 86.318 55.0912 85.9757 54.6948C85.6299 54.2984 85.3617 53.8564 85.1676 53.3617C84.9736 52.8671 84.8748 52.3655 84.8748 51.8638Z" fill="url(#paint0_linear_1492_476)"/>
<path d="M96.5034 55.99C95.9106 55.99 95.3778 55.8777 94.8943 55.6497C94.4144 55.4252 94.0016 55.1165 93.6558 54.7306C93.31 54.3412 93.0453 53.9062 92.8548 53.4186C92.6642 52.9345 92.569 52.4329 92.569 51.9207C92.569 51.3875 92.6678 50.8753 92.8689 50.3912C93.07 49.9036 93.3453 49.4722 93.6981 49.0933C94.051 48.7144 94.4674 48.4128 94.9473 48.1882C95.4272 47.9672 95.9564 47.855 96.5316 47.855C97.1138 47.855 97.6467 47.9707 98.1301 48.2058C98.61 48.4408 99.0228 48.753 99.3616 49.1424C99.7039 49.5353 99.9685 49.9703 100.156 50.4544C100.346 50.935 100.441 51.4331 100.441 51.9453C100.441 52.4715 100.343 52.9801 100.145 53.4642C99.9473 53.9518 99.6721 54.3833 99.3192 54.7622C98.9664 55.141 98.55 55.4427 98.0701 55.6602C97.5973 55.8812 97.0715 55.99 96.5034 55.99ZM94.1639 51.9242C94.1639 52.2715 94.2168 52.6048 94.3227 52.931C94.4286 53.2537 94.5838 53.5449 94.7814 53.794C94.9825 54.0466 95.2296 54.2465 95.5189 54.3938C95.8118 54.5412 96.1435 54.6148 96.514 54.6148C96.8915 54.6148 97.2303 54.5377 97.5267 54.3833C97.8231 54.229 98.0666 54.022 98.2642 53.7624C98.4618 53.5028 98.61 53.2117 98.7123 52.8924C98.8146 52.5732 98.8676 52.2505 98.8676 51.9277C98.8676 51.5805 98.8111 51.2472 98.7017 50.928C98.5923 50.6087 98.4371 50.3211 98.2359 50.0685C98.0348 49.8159 97.7878 49.616 97.4985 49.4686C97.2056 49.3213 96.8774 49.2476 96.514 49.2476C96.1258 49.2476 95.7871 49.3248 95.4977 49.4792C95.2049 49.6335 94.9614 49.8405 94.7638 50.0966C94.5662 50.3527 94.418 50.6403 94.3156 50.956C94.2133 51.2682 94.1639 51.591 94.1639 51.9242Z" fill="url(#paint1_linear_1492_476)"/>
<path d="M108.236 55.9363V50.6708L106.169 54.5928H105.293L103.226 50.6708V55.9363H101.655V47.9136H103.339L105.724 52.4774L108.134 47.9136H109.803V55.9363H108.236Z" fill="url(#paint2_linear_1492_476)"/>
<path d="M111.484 55.9363V47.9136H114.907C115.278 47.9136 115.62 47.9872 115.93 48.1381C116.241 48.2889 116.513 48.4924 116.742 48.7485C116.971 49.0046 117.151 49.2922 117.282 49.6079C117.409 49.9236 117.476 50.2499 117.476 50.5796C117.476 51.0322 117.37 51.4601 117.158 51.8671C116.947 52.274 116.654 52.6037 116.283 52.8598C115.913 53.1159 115.472 53.2422 114.964 53.2422H113.055V55.9328H111.484V55.9363ZM113.051 51.8811H114.868C115.059 51.8811 115.228 51.8285 115.38 51.7232C115.532 51.618 115.652 51.4636 115.743 51.2672C115.835 51.0672 115.881 50.8392 115.881 50.5831C115.881 50.306 115.828 50.0675 115.726 49.871C115.623 49.6746 115.489 49.5272 115.327 49.429C115.165 49.3308 114.988 49.2817 114.798 49.2817H113.048V51.8811H113.051Z" fill="url(#paint3_linear_1492_476)"/>
<path d="M120.18 47.9136H121.771L124.739 55.9363H123.126L122.456 53.9368H119.492L118.818 55.9363H117.205L120.18 47.9136ZM122.085 52.8423L120.974 49.5308L119.858 52.8423H122.085Z" fill="url(#paint4_linear_1492_476)"/>
<path d="M127.192 50.7831V55.9363H125.622V47.9136H126.871L131.042 53.2001V47.9241H132.612V55.9363H131.307L127.192 50.7831Z" fill="url(#paint5_linear_1492_476)"/>
<path d="M135.206 47.9136L137.196 51.6882L139.218 47.9136H140.912L137.98 53.1334V55.9363H136.424V53.1124L133.502 47.9136H135.206Z" fill="url(#paint6_linear_1492_476)"/>
<path d="M43.2537 55.9268V50.6613L41.186 54.5832H40.3109L38.2431 50.6613V55.9268H36.6729V47.9041H38.356L40.7414 52.4679L43.1514 47.9041H44.8205V55.9268H43.2537Z" fill="url(#paint7_linear_1492_476)"/>
<path d="M49.9477 55.9902C49.3549 55.9902 48.8221 55.878 48.3387 55.6499C47.8588 55.4254 47.4459 55.1167 47.1001 54.7308C46.7543 54.3415 46.4897 53.9065 46.2991 53.4189C46.1086 52.9348 46.0133 52.4331 46.0133 51.921C46.0133 51.3878 46.1121 50.8756 46.3132 50.3915C46.5144 49.9074 46.7896 49.4724 47.1425 49.0935C47.4953 48.7147 47.9117 48.413 48.3916 48.1885C48.8715 47.9675 49.4008 47.8552 49.976 47.8552C50.5582 47.8552 51.091 47.971 51.5744 48.206C52.0543 48.4411 52.4672 48.7533 52.8059 49.1427C53.1482 49.5355 53.4128 49.9705 53.5999 50.4546C53.7904 50.9352 53.8857 51.4334 53.8857 51.9455C53.8857 52.4717 53.7869 52.9804 53.5893 53.4645C53.3917 53.9521 53.1164 54.3836 52.7636 54.7624C52.4107 55.1413 51.9943 55.443 51.5144 55.6605C51.0416 55.8815 50.5158 55.9902 49.9477 55.9902ZM47.6082 51.9245C47.6082 52.2718 47.6612 52.605 47.767 52.9313C47.8729 53.254 48.0281 53.5452 48.2258 53.7942C48.4269 54.0468 48.6739 54.2468 48.9632 54.3941C49.2561 54.5414 49.5878 54.6151 49.9583 54.6151C50.3359 54.6151 50.6746 54.5379 50.971 54.3836C51.2674 54.2292 51.5109 54.0222 51.7085 53.7627C51.9061 53.5031 52.0543 53.2119 52.1566 52.8927C52.259 52.5735 52.3119 52.2507 52.3119 51.928C52.3119 51.5807 52.2554 51.2474 52.1461 50.9282C52.0367 50.609 51.8814 50.3213 51.6803 50.0688C51.4792 49.8162 51.2321 49.6162 50.9428 49.4689C50.6499 49.3216 50.3218 49.2479 49.9583 49.2479C49.5702 49.2479 49.2314 49.3251 48.9421 49.4794C48.6492 49.6338 48.4057 49.8407 48.2081 50.0968C48.0105 50.3529 47.8623 50.6406 47.76 50.9563C47.6576 51.2685 47.6082 51.5912 47.6082 51.9245Z" fill="url(#paint8_linear_1492_476)"/>
<path d="M62.4716 55.9268V47.9041H64.0418V55.9268H62.4716Z" fill="url(#paint9_linear_1492_476)"/>
<path d="M67.2905 50.7736V55.9268H65.7202V47.9041H66.9694L71.1402 53.1906V47.9146H72.7104V55.9268H71.4048L67.2905 50.7736Z" fill="url(#paint10_linear_1492_476)"/>
<path d="M77.7496 55.9839C77.2273 55.9839 76.7333 55.8787 76.2675 55.6682C75.8018 55.4578 75.3924 55.1666 75.0396 54.7912C74.6867 54.4194 74.4115 53.9844 74.2139 53.4863C74.0163 52.9881 73.9175 52.4514 73.9175 51.8691C73.9175 51.3184 74.0163 50.8027 74.2139 50.3151C74.4115 49.8275 74.6867 49.403 75.0431 49.0312C75.3995 48.6628 75.8159 48.3717 76.2922 48.1612C76.7686 47.9507 77.2873 47.8455 77.8484 47.8455C78.607 47.8455 79.2563 48.0068 79.7962 48.326C80.3396 48.6453 80.7454 49.0697 81.0171 49.5959L79.8456 50.4554C79.6409 50.0555 79.3551 49.7503 78.9881 49.5398C78.6211 49.3293 78.2224 49.2241 77.7884 49.2241C77.4461 49.2241 77.1356 49.2943 76.8568 49.4381C76.5781 49.5819 76.3346 49.7783 76.1299 50.0239C75.9253 50.2695 75.7665 50.5606 75.6571 50.8834C75.5477 51.2061 75.4912 51.5499 75.4912 51.9112C75.4912 52.2971 75.5512 52.6479 75.6677 52.9741C75.7841 53.2968 75.95 53.581 76.1687 53.823C76.384 54.0651 76.6381 54.2545 76.9239 54.3948C77.2132 54.5352 77.5308 54.6053 77.8801 54.6053C78.2894 54.6053 78.6811 54.5001 79.0552 54.2896C79.4292 54.0791 79.7821 53.7704 80.1067 53.3635V54.9C79.4398 55.6226 78.6494 55.9839 77.7496 55.9839ZM80.0008 52.9461H78.3741V51.806H81.2958V55.9313H80.0008V52.9461Z" fill="url(#paint11_linear_1492_476)"/>
<path d="M62.6165 45.2073L61.5226 43.3901L59.8606 45.0248L60.4393 45.0599L57.8034 54.0789L55.6192 47.9084H53.9713L57.0412 55.9311H58.5515L62.0448 45.1617L62.6165 45.2073Z" fill="url(#paint12_linear_1492_476)"/>
<path d="M171.339 32.5562H158.763V27.6872H169.942V29.0237L176.187 24.2038L169.942 19.3873V20.8186H158.763V16.4687H171.339V17.6544L177.588 12.8379L171.339 8.02148V9.07739H150.234V39.9475H171.339V41.1648L177.588 36.3484L171.339 31.5284V32.5562Z" fill="white"/>
<path d="M70.0829 39.8723V9.22314H84.2397C85.7429 9.22314 87.1332 9.52483 88.4071 10.1282C89.6809 10.7316 90.7818 11.5454 91.7063 12.5662C92.6308 13.5871 93.3471 14.7307 93.8553 15.997C94.3599 17.2634 94.6139 18.5438 94.6139 19.8383C94.6139 21.0169 94.441 22.1535 94.0917 23.248C93.7459 24.3425 93.2378 25.3423 92.5708 26.2473C91.9039 27.1524 91.11 27.9382 90.182 28.6012L96.6958 39.8688H87.4049L81.9779 30.4569H78.5481V39.8688H70.0829V39.8723ZM78.5481 23.1217H83.8904C84.2362 23.1217 84.5714 22.9919 84.889 22.7323C85.2066 22.4727 85.4748 22.1009 85.6935 21.6098C85.9123 21.1222 86.0182 20.5293 86.0182 19.8383C86.0182 19.1191 85.8947 18.5228 85.6477 18.0457C85.4007 17.5721 85.0972 17.2038 84.7373 16.9442C84.3738 16.6846 84.021 16.5548 83.6752 16.5548H78.5516V23.1217H78.5481Z" fill="white"/>
<path d="M99.3892 39.8723V9.22314H107.858V39.8723H99.3892Z" fill="white"/>
<path d="M136.478 39.8723V23.7286L131.312 35.0804H126.795L121.629 23.7286V39.8723H113.161V9.22314H122.409L129.053 23.6409L135.74 9.22314H144.946V39.8723H136.478Z" fill="white"/>
<path d="M10.6051 40.2403C12.2847 40.2403 14.2078 38.8687 14.903 37.1744C15.5981 35.48 14.8042 34.1084 13.1245 34.1084H10.1393C8.45969 34.1084 6.53659 35.48 5.84145 37.1744C5.49211 38.0198 5.51681 38.788 5.84145 39.3423C6.16255 39.8965 6.78359 40.2403 7.61988 40.2403H10.6051Z" fill="white"/>
<path d="M4.55069 9.22314C2.87107 9.22314 0.947963 10.5948 0.252823 12.2891C-0.0965114 13.1345 -0.071811 13.9028 0.252823 14.457C0.573928 15.0113 1.19497 15.3551 2.03125 15.3551H5.01647C6.6961 15.3551 8.6192 13.9835 9.31435 12.2891C10.0095 10.5948 9.21554 9.22314 7.53591 9.22314H4.55069Z" fill="white"/>
<path d="M15.0999 27.617C15.9397 27.617 16.8395 27.2733 17.6194 26.719C18.3957 26.1647 19.052 25.3965 19.4013 24.5511C20.0965 22.8567 19.3025 21.4851 17.6229 21.4851H6.0737C4.39407 21.4851 2.47097 22.8567 1.77583 24.5511C1.08069 26.2454 1.87463 27.617 3.55426 27.617H15.0999Z" fill="white"/>
<path d="M65.935 16.0068C65.4269 14.7404 64.7106 13.5968 63.7861 12.576C62.8581 11.5552 61.7607 10.7413 60.4868 10.138C59.213 9.5346 57.8227 9.23291 56.3195 9.23291H43.0342H40.3348H34.0151H30.4511H27.4765H24.7877H22.2718H14.597C13.7572 9.23291 12.8574 9.57669 12.0776 10.1309C11.3013 10.6852 10.6449 11.4535 10.2956 12.2989C9.60046 13.9932 10.3944 15.3648 12.074 15.3648H18.7608H20.8603H22.9916H25.1723H27.4236H29.7701H32.2931H35.1689H39.2904H39.488C40.603 15.3648 41.3264 15.9717 41.4816 16.8768C41.5628 17.3328 41.4993 17.8625 41.2664 18.4308C41.1993 18.5887 41.1217 18.743 41.037 18.8974C40.6665 19.5569 40.1196 20.1462 39.488 20.5987C38.8211 21.0758 38.0624 21.3915 37.332 21.4757C37.212 21.4898 37.0885 21.4968 36.9685 21.4968H35.123H33.0447H31.0157H29.015H27.0248H25.4228C25.2993 21.4968 25.1723 21.5073 25.0453 21.5213C24.3395 21.602 23.6091 21.9072 22.9599 22.3562C22.9422 22.3703 22.921 22.3808 22.9034 22.3948C22.1271 22.9491 21.4708 23.7173 21.1214 24.5627C21.0121 24.8258 20.945 25.0784 20.9062 25.3205C20.8462 25.7099 20.8674 26.0677 20.9697 26.3834C21.2132 27.1376 21.8977 27.6252 22.8963 27.6252H23.0728H25.0453H27.0178H29.0079H31.0087H33.0376H35.116H37.3073H39.8867H43.0201V33.7536C42.2403 33.7642 42.4944 33.7536 42.2403 33.7536H39.2798H35.1583H32.2825H29.7595H27.413H25.1617H22.981H20.8497H20.3698C19.8829 33.7536 19.3748 33.8729 18.8808 34.0799C17.6775 34.5815 16.566 35.6199 16.072 36.8196C15.3768 38.5139 16.1708 39.8856 17.8504 39.8856H22.2541H24.77H27.4589H30.4335H33.9974H40.3172H43.0166H44.1599H47.7908H51.4818V30.4737H56.5171C58.5426 30.4737 60.3175 29.9615 61.8348 28.9407C63.3556 27.9199 64.5412 26.6044 65.3952 24.9907C66.2491 23.3806 66.6761 21.6687 66.6761 19.855C66.6937 18.5536 66.4396 17.2732 65.935 16.0068ZM57.7698 21.7915C57.551 22.2826 57.2864 22.6263 56.9653 22.8263C56.6477 23.0262 56.3125 23.128 55.9667 23.128H51.4959V16.5681H55.7514C56.0972 16.5681 56.4536 16.6628 56.8135 16.8487C57.1735 17.0346 57.4804 17.3679 57.7239 17.8415C57.9709 18.315 58.0944 18.9851 58.0944 19.848C58.098 20.6549 57.9886 21.3003 57.7698 21.7915Z" fill="white"/>
<path d="M134.582 4.40675C134.409 3.62447 134.077 2.91586 133.597 2.2739C133.072 1.56879 132.412 1.01103 131.625 0.611122C130.609 0.0919423 129.529 -0.0834614 128.396 0.0358096C128.379 0.0393176 128.357 0.0428286 128.34 0.0498445C128.029 0.0744003 127.726 0.144556 127.426 0.232255C126.823 0.411162 126.265 0.684793 125.753 1.05313C124.931 1.64247 124.31 2.39668 123.89 3.31226C123.513 4.13313 123.347 4.99609 123.4 5.89413C123.417 6.23791 123.474 6.57819 123.566 6.90793C123.569 6.93951 123.573 6.97107 123.583 6.99913C123.728 7.54287 123.911 8.07608 124.141 8.58825C124.416 9.20565 124.702 9.81955 125.009 10.4229C125.64 11.6612 126.343 12.8645 127.087 14.0396C127.645 14.9236 128.227 15.7936 128.799 16.6671C128.866 16.7723 128.943 16.8706 129.017 16.9688C129.042 16.9688 129.063 16.9688 129.088 16.9688C129.098 16.9513 129.109 16.9372 129.123 16.9197C129.134 16.9092 129.148 16.9021 129.155 16.8916C129.286 16.7022 129.416 16.5198 129.54 16.3268C130.087 15.4849 130.641 14.6465 131.173 13.7976C131.509 13.2679 131.819 12.7241 132.133 12.1839C132.712 11.1877 133.255 10.1738 133.735 9.12496C133.993 8.56018 134.222 7.98838 134.409 7.39554C134.473 7.19558 134.515 6.99212 134.564 6.78865C134.568 6.77813 134.575 6.76761 134.578 6.75708C134.758 5.97481 134.758 5.19253 134.582 4.40675ZM128.544 12.7452C128.442 12.661 128.34 12.5803 128.238 12.4926C128.34 12.5803 128.442 12.6645 128.544 12.7452ZM131.731 5.85203C131.629 6.57467 131.276 7.16402 130.693 7.60953C130.157 8.01996 129.55 8.20237 128.873 8.16378C128.851 8.16378 128.83 8.16378 128.809 8.16378C128.77 8.16028 128.732 8.15326 128.693 8.14975C128.682 8.14975 128.675 8.14625 128.664 8.14625C128.477 8.09714 128.287 8.05855 128.107 7.9919C127.652 7.82702 127.271 7.5569 126.967 7.18506C126.54 6.66588 126.325 6.06601 126.35 5.39599C126.381 4.54355 126.741 3.84898 127.419 3.32279C127.807 3.0211 128.248 2.8457 128.735 2.78607C128.746 2.78607 128.76 2.77904 128.77 2.77553C128.971 2.77904 129.173 2.76502 129.37 2.78607C129.924 2.8422 130.415 3.05969 130.828 3.42802C131.551 4.077 131.865 4.88734 131.731 5.85203Z" fill="white"/>
<defs>
<linearGradient id="paint0_linear_1492_476" x1="88.447" y1="52.723" x2="91.2479" y2="66.0483" gradientUnits="userSpaceOnUse">
<stop stop-color="white"/>
<stop offset="1" stop-color="#D9D9D9" stop-opacity="0"/>
</linearGradient>
<linearGradient id="paint1_linear_1492_476" x1="96.4566" y1="52.7132" x2="99.0473" y2="66.1269" gradientUnits="userSpaceOnUse">
<stop stop-color="white"/>
<stop offset="1" stop-color="#D9D9D9" stop-opacity="0"/>
</linearGradient>
<linearGradient id="paint2_linear_1492_476" x1="105.679" y1="52.7048" x2="108.122" y2="65.9773" gradientUnits="userSpaceOnUse">
<stop stop-color="white"/>
<stop offset="1" stop-color="#D9D9D9" stop-opacity="0"/>
</linearGradient>
<linearGradient id="paint3_linear_1492_476" x1="114.443" y1="52.7048" x2="117.675" y2="65.618" gradientUnits="userSpaceOnUse">
<stop stop-color="white"/>
<stop offset="1" stop-color="#D9D9D9" stop-opacity="0"/>
</linearGradient>
<linearGradient id="paint4_linear_1492_476" x1="120.925" y1="52.7048" x2="123.552" y2="65.9039" gradientUnits="userSpaceOnUse">
<stop stop-color="white"/>
<stop offset="1" stop-color="#D9D9D9" stop-opacity="0"/>
</linearGradient>
<linearGradient id="paint5_linear_1492_476" x1="129.074" y1="52.7048" x2="131.888" y2="65.8232" gradientUnits="userSpaceOnUse">
<stop stop-color="white"/>
<stop offset="1" stop-color="#D9D9D9" stop-opacity="0"/>
</linearGradient>
<linearGradient id="paint6_linear_1492_476" x1="137.161" y1="52.7048" x2="139.829" y2="65.887" gradientUnits="userSpaceOnUse">
<stop stop-color="white"/>
<stop offset="1" stop-color="#D9D9D9" stop-opacity="0"/>
</linearGradient>
<linearGradient id="paint7_linear_1492_476" x1="40.6964" y1="52.6953" x2="43.1391" y2="65.9677" gradientUnits="userSpaceOnUse">
<stop stop-color="white"/>
<stop offset="1" stop-color="#D9D9D9" stop-opacity="0"/>
</linearGradient>
<linearGradient id="paint8_linear_1492_476" x1="49.901" y1="52.7135" x2="52.4917" y2="66.1271" gradientUnits="userSpaceOnUse">
<stop stop-color="white"/>
<stop offset="1" stop-color="#D9D9D9" stop-opacity="0"/>
</linearGradient>
<linearGradient id="paint9_linear_1492_476" x1="63.247" y1="52.6953" x2="70.1007" y2="59.8724" gradientUnits="userSpaceOnUse">
<stop stop-color="white"/>
<stop offset="1" stop-color="#D9D9D9" stop-opacity="0"/>
</linearGradient>
<linearGradient id="paint10_linear_1492_476" x1="69.1722" y1="52.6953" x2="71.9863" y2="65.8136" gradientUnits="userSpaceOnUse">
<stop stop-color="white"/>
<stop offset="1" stop-color="#D9D9D9" stop-opacity="0"/>
</linearGradient>
<linearGradient id="paint11_linear_1492_476" x1="77.5612" y1="52.7058" x2="80.3139" y2="66.0583" gradientUnits="userSpaceOnUse">
<stop stop-color="white"/>
<stop offset="1" stop-color="#D9D9D9" stop-opacity="0"/>
</linearGradient>
<linearGradient id="paint12_linear_1492_476" x1="58.2406" y1="50.8797" x2="63.6581" y2="70.8608" gradientUnits="userSpaceOnUse">
<stop stop-color="white"/>
<stop offset="1" stop-color="#D9D9D9" stop-opacity="0"/>
</linearGradient>
</defs>
</svg>
