<svg width="16" height="16" viewBox="0 0 16 16" fill="none" xmlns="http://www.w3.org/2000/svg">
<path d="M16 9.2C16 10.608 14.96 11.776 13.6 11.968V14.4C13.6 14.8243 13.4314 15.2313 13.1314 15.5314C12.8313 15.8314 12.4243 16 12 16H8.96V15.76C8.96 15.1871 8.73243 14.6377 8.32735 14.2326C7.92227 13.8276 7.37287 13.6 6.8 13.6C5.6 13.6 4.64 14.568 4.64 15.76V16H1.6C1.17565 16 0.768687 15.8314 0.468629 15.5314C0.168571 15.2313 0 14.8243 0 14.4V11.36H0.24C1.432 11.36 2.4 10.4 2.4 9.2C2.4 8 1.432 7.04 0.24 7.04H0V4C0 3.57565 0.168571 3.16869 0.468629 2.86863C0.768687 2.56857 1.17565 2.4 1.6 2.4H4.032C4.224 1.04 5.392 0 6.8 0C8.208 0 9.376 1.04 9.568 2.4H12C12.4243 2.4 12.8313 2.56857 13.1314 2.86863C13.4314 3.16869 13.6 3.57565 13.6 4V6.432C14.96 6.624 16 7.792 16 9.2ZM12 10.4H13.2C13.5183 10.4 13.8235 10.2736 14.0485 10.0485C14.2736 9.82348 14.4 9.51826 14.4 9.2C14.4 8.88174 14.2736 8.57652 14.0485 8.35147C13.8235 8.12643 13.5183 8 13.2 8H12V4H8V2.8C8 2.48174 7.87357 2.17652 7.64853 1.95147C7.42348 1.72643 7.11826 1.6 6.8 1.6C6.48174 1.6 6.17652 1.72643 5.95147 1.95147C5.72643 2.17652 5.6 2.48174 5.6 2.8V4H1.6V5.696C3.008 6.24 4 7.6 4 9.2C4 10.8 3 12.16 1.6 12.704V14.4H3.296C3.57013 13.6934 4.0514 13.0862 4.67669 12.6579C5.30198 12.2296 6.0421 12.0003 6.8 12C8.4 12 9.76 13 10.304 14.4H12V10.4Z" fill="#D04E47"/>
</svg>
