<svg width="16" height="16" viewBox="0 0 16 16" fill="none" xmlns="http://www.w3.org/2000/svg">
<path d="M9.888 9.784C9.35322 10.2152 8.68696 10.4503 8 10.4503C7.31305 10.4503 6.64679 10.2152 6.112 9.784C5.94863 9.64821 5.738 9.58288 5.52646 9.60238C5.31492 9.62188 5.11979 9.72462 4.984 9.888C4.84821 10.0514 4.78288 10.262 4.80239 10.4735C4.82189 10.6851 4.92463 10.8802 5.088 11.016C5.90507 11.6981 6.93565 12.0717 8 12.0717C9.06435 12.0717 10.0949 11.6981 10.912 11.016C11.0754 10.8802 11.1781 10.6851 11.1976 10.4735C11.2171 10.262 11.1518 10.0514 11.016 9.888C10.9488 9.8071 10.8663 9.74024 10.7732 9.69124C10.6801 9.64223 10.5783 9.61204 10.4735 9.60238C10.262 9.58288 10.0514 9.64821 9.888 9.784ZM5.6 7.2C5.75823 7.2 5.9129 7.15308 6.04446 7.06517C6.17602 6.97727 6.27856 6.85233 6.33911 6.70615C6.39966 6.55996 6.4155 6.39911 6.38463 6.24393C6.35376 6.08874 6.27757 5.9462 6.16569 5.83431C6.05381 5.72243 5.91126 5.64624 5.75607 5.61537C5.60089 5.5845 5.44004 5.60034 5.29386 5.66089C5.14767 5.72144 5.02273 5.82398 4.93483 5.95554C4.84692 6.0871 4.8 6.24177 4.8 6.4C4.8 6.61217 4.88429 6.81565 5.03432 6.96568C5.18435 7.11571 5.38783 7.2 5.6 7.2ZM10.4 5.6C10.2418 5.6 10.0871 5.64692 9.95555 5.73482C9.82399 5.82273 9.72145 5.94767 9.6609 6.09385C9.60035 6.24003 9.58451 6.40089 9.61537 6.55607C9.64624 6.71126 9.72243 6.8538 9.83432 6.96568C9.9462 7.07757 10.0887 7.15376 10.2439 7.18463C10.3991 7.21549 10.56 7.19965 10.7061 7.1391C10.8523 7.07855 10.9773 6.97601 11.0652 6.84445C11.1531 6.7129 11.2 6.55822 11.2 6.4C11.2 6.18783 11.1157 5.98434 10.9657 5.83431C10.8157 5.68428 10.6122 5.6 10.4 5.6ZM8 0C6.41775 0 4.87103 0.469192 3.55544 1.34824C2.23985 2.22729 1.21447 3.47672 0.608967 4.93853C0.00346627 6.40034 -0.15496 8.00887 0.153721 9.56072C0.462403 11.1126 1.22433 12.538 2.34315 13.6569C3.46197 14.7757 4.88743 15.5376 6.43928 15.8463C7.99113 16.155 9.59966 15.9965 11.0615 15.391C12.5233 14.7855 13.7727 13.7602 14.6518 12.4446C15.5308 11.129 16 9.58225 16 8C16 6.94942 15.7931 5.90914 15.391 4.93853C14.989 3.96793 14.3997 3.08601 13.6569 2.34315C12.914 1.60028 12.0321 1.011 11.0615 0.608964C10.0909 0.206926 9.05058 0 8 0ZM8 14.4C6.7342 14.4 5.49683 14.0246 4.44435 13.3214C3.39188 12.6182 2.57158 11.6186 2.08717 10.4492C1.60277 9.27972 1.47603 7.9929 1.72298 6.75142C1.96992 5.50994 2.57946 4.36957 3.47452 3.47452C4.36958 2.57946 5.50995 1.96992 6.75142 1.72297C7.9929 1.47603 9.27973 1.60277 10.4492 2.08717C11.6186 2.57157 12.6182 3.39187 13.3214 4.44435C14.0246 5.49682 14.4 6.7342 14.4 8C14.4 9.69738 13.7257 11.3252 12.5255 12.5255C11.3253 13.7257 9.69739 14.4 8 14.4Z" fill="#D04E47"/>
</svg>
