<svg width="18" height="18" viewBox="0 0 18 18" fill="none" xmlns="http://www.w3.org/2000/svg">
<path d="M6.3335 7.22203L9.2295 9.39448C9.40891 9.52903 9.63256 9.5908 9.8556 9.56739C10.0786 9.54398 10.2846 9.43713 10.4322 9.26825L16.1113 2.77759" stroke="#D04E47" stroke-width="1.4" stroke-linecap="round"/>
<path d="M17 8.99985C17 10.6714 16.4765 12.301 15.5028 13.6598C14.5292 15.0185 13.1544 16.0381 11.5715 16.5755C9.98861 17.1128 8.2772 17.1407 6.6776 16.6555C5.07801 16.1702 3.6706 15.1961 2.65304 13.8699C1.63549 12.5437 1.0589 10.9321 1.00428 9.26145C0.949647 7.59076 1.41972 5.94493 2.34847 4.55511C3.27721 3.16529 4.61798 2.1013 6.18246 1.51258C7.74693 0.923864 9.45652 0.839991 11.0711 1.27274" stroke="#D04E47" stroke-width="1.4" stroke-linecap="round"/>
</svg>
