<svg width="17" height="17" viewBox="0 0 17 17" fill="none" xmlns="http://www.w3.org/2000/svg">
<path d="M4.74975 4.75145L7.42813 7.42968M4.74975 4.75145L5.99966 3.50161V3.32307L4.97116 2.89455C4.23193 2.5865 3.53953 2.17637 2.91416 1.67614L2.07136 1.00194H1.8928L1 1.89468V2.07323L1.67424 2.91598C2.17451 3.54131 2.58466 4.23367 2.89273 4.97285L3.32127 6.00129H3.49983L4.74975 4.75145ZM9.73798 12.0719C10.8585 13.3434 11.9343 14.6535 12.9635 16H13.142L15.999 13.1432V12.9647C15.999 12.9647 14.2348 11.642 12.0707 9.73938M12.4278 8.14387C13.0209 8.14404 13.6046 7.99652 14.1264 7.71462C14.6482 7.43273 15.0915 7.02534 15.4164 6.52923C15.7413 6.03312 15.9375 5.46391 15.9874 4.87298C16.0372 4.28206 15.9391 3.68803 15.7019 3.14452H15.2847L13.142 5.2871H11.7136V3.85871L13.8563 1.71613V1.29904C13.2161 1.01918 12.5079 0.93323 11.8194 1.05185C11.1308 1.17047 10.4922 1.48844 9.98261 1.96639C9.47301 2.44433 9.1148 3.06125 8.95237 3.74074C8.78993 4.42024 8.83039 5.13245 9.06874 5.78918L7.78525 7.07258C4.57119 10.2865 1 12.9647 1 12.9647V13.1432L3.85695 16H4.03551C4.03551 16 6.7139 12.429 9.92797 9.21516L11.2114 7.93176C11.6015 8.07254 12.0131 8.14432 12.4278 8.14387Z" stroke="#D04E47" stroke-width="1.4"/>
</svg>
